<svg class="rich-terminal" viewBox="0 0 2654 879.5999999999999" xmlns="http://www.w3.org/2000/svg">
    <!-- Generated with Rich https://www.textualize.io -->
    <style>

    @font-face {
        font-family: "Fira Code";
        src: local("FiraCode-Regular"),
                url("https://cdnjs.cloudflare.com/ajax/libs/firacode/6.2.0/woff2/FiraCode-Regular.woff2") format("woff2"),
                url("https://cdnjs.cloudflare.com/ajax/libs/firacode/6.2.0/woff/FiraCode-Regular.woff") format("woff");
        font-style: normal;
        font-weight: 400;
    }
    @font-face {
        font-family: "Fira Code";
        src: local("FiraCode-Bold"),
                url("https://cdnjs.cloudflare.com/ajax/libs/firacode/6.2.0/woff2/FiraCode-Bold.woff2") format("woff2"),
                url("https://cdnjs.cloudflare.com/ajax/libs/firacode/6.2.0/woff/FiraCode-Bold.woff") format("woff");
        font-style: bold;
        font-weight: 700;
    }

    .terminal-1239222041-matrix {
        font-family: Fira Code, monospace;
        font-size: 20px;
        line-height: 24.4px;
        font-variant-east-asian: full-width;
    }

    .terminal-1239222041-title {
        font-size: 18px;
        font-weight: bold;
        font-family: arial;
    }

    .terminal-1239222041-r1 { fill: #c5c8c6 }
.terminal-1239222041-r2 { fill: #e0e0e0 }
.terminal-1239222041-r3 { fill: #a0a3a6 }
.terminal-1239222041-r4 { fill: #e0e0e0;font-weight: bold }
.terminal-1239222041-r5 { fill: #f4005f;font-weight: bold }
.terminal-1239222041-r6 { fill: #ddedf9;font-weight: bold }
.terminal-1239222041-r7 { fill: #64bc5f;font-weight: bold }
.terminal-1239222041-r8 { fill: #71a125 }
.terminal-1239222041-r9 { fill: #ffa62b;font-weight: bold }
.terminal-1239222041-r10 { fill: #495259 }
    </style>

    <defs>
    <clipPath id="terminal-1239222041-clip-terminal">
      <rect x="0" y="0" width="2634.2" height="828.5999999999999" />
    </clipPath>
    <clipPath id="terminal-1239222041-line-0">
    <rect x="0" y="1.5" width="2635.2" height="24.65"/>
            </clipPath>
<clipPath id="terminal-1239222041-line-1">
    <rect x="0" y="25.9" width="2635.2" height="24.65"/>
            </clipPath>
<clipPath id="terminal-1239222041-line-2">
    <rect x="0" y="50.3" width="2635.2" height="24.65"/>
            </clipPath>
<clipPath id="terminal-1239222041-line-3">
    <rect x="0" y="74.7" width="2635.2" height="24.65"/>
            </clipPath>
<clipPath id="terminal-1239222041-line-4">
    <rect x="0" y="99.1" width="2635.2" height="24.65"/>
            </clipPath>
<clipPath id="terminal-1239222041-line-5">
    <rect x="0" y="123.5" width="2635.2" height="24.65"/>
            </clipPath>
<clipPath id="terminal-1239222041-line-6">
    <rect x="0" y="147.9" width="2635.2" height="24.65"/>
            </clipPath>
<clipPath id="terminal-1239222041-line-7">
    <rect x="0" y="172.3" width="2635.2" height="24.65"/>
            </clipPath>
<clipPath id="terminal-1239222041-line-8">
    <rect x="0" y="196.7" width="2635.2" height="24.65"/>
            </clipPath>
<clipPath id="terminal-1239222041-line-9">
    <rect x="0" y="221.1" width="2635.2" height="24.65"/>
            </clipPath>
<clipPath id="terminal-1239222041-line-10">
    <rect x="0" y="245.5" width="2635.2" height="24.65"/>
            </clipPath>
<clipPath id="terminal-1239222041-line-11">
    <rect x="0" y="269.9" width="2635.2" height="24.65"/>
            </clipPath>
<clipPath id="terminal-1239222041-line-12">
    <rect x="0" y="294.3" width="2635.2" height="24.65"/>
            </clipPath>
<clipPath id="terminal-1239222041-line-13">
    <rect x="0" y="318.7" width="2635.2" height="24.65"/>
            </clipPath>
<clipPath id="terminal-1239222041-line-14">
    <rect x="0" y="343.1" width="2635.2" height="24.65"/>
            </clipPath>
<clipPath id="terminal-1239222041-line-15">
    <rect x="0" y="367.5" width="2635.2" height="24.65"/>
            </clipPath>
<clipPath id="terminal-1239222041-line-16">
    <rect x="0" y="391.9" width="2635.2" height="24.65"/>
            </clipPath>
<clipPath id="terminal-1239222041-line-17">
    <rect x="0" y="416.3" width="2635.2" height="24.65"/>
            </clipPath>
<clipPath id="terminal-1239222041-line-18">
    <rect x="0" y="440.7" width="2635.2" height="24.65"/>
            </clipPath>
<clipPath id="terminal-1239222041-line-19">
    <rect x="0" y="465.1" width="2635.2" height="24.65"/>
            </clipPath>
<clipPath id="terminal-1239222041-line-20">
    <rect x="0" y="489.5" width="2635.2" height="24.65"/>
            </clipPath>
<clipPath id="terminal-1239222041-line-21">
    <rect x="0" y="513.9" width="2635.2" height="24.65"/>
            </clipPath>
<clipPath id="terminal-1239222041-line-22">
    <rect x="0" y="538.3" width="2635.2" height="24.65"/>
            </clipPath>
<clipPath id="terminal-1239222041-line-23">
    <rect x="0" y="562.7" width="2635.2" height="24.65"/>
            </clipPath>
<clipPath id="terminal-1239222041-line-24">
    <rect x="0" y="587.1" width="2635.2" height="24.65"/>
            </clipPath>
<clipPath id="terminal-1239222041-line-25">
    <rect x="0" y="611.5" width="2635.2" height="24.65"/>
            </clipPath>
<clipPath id="terminal-1239222041-line-26">
    <rect x="0" y="635.9" width="2635.2" height="24.65"/>
            </clipPath>
<clipPath id="terminal-1239222041-line-27">
    <rect x="0" y="660.3" width="2635.2" height="24.65"/>
            </clipPath>
<clipPath id="terminal-1239222041-line-28">
    <rect x="0" y="684.7" width="2635.2" height="24.65"/>
            </clipPath>
<clipPath id="terminal-1239222041-line-29">
    <rect x="0" y="709.1" width="2635.2" height="24.65"/>
            </clipPath>
<clipPath id="terminal-1239222041-line-30">
    <rect x="0" y="733.5" width="2635.2" height="24.65"/>
            </clipPath>
<clipPath id="terminal-1239222041-line-31">
    <rect x="0" y="757.9" width="2635.2" height="24.65"/>
            </clipPath>
<clipPath id="terminal-1239222041-line-32">
    <rect x="0" y="782.3" width="2635.2" height="24.65"/>
            </clipPath>
    </defs>

    <rect fill="#292929" stroke="rgba(255,255,255,0.35)" stroke-width="1" x="1" y="1" width="2652" height="877.6" rx="8"/><text class="terminal-1239222041-title" fill="#c5c8c6" text-anchor="middle" x="1326" y="27">okgv&#160;undo</text>
            <g transform="translate(26,22)">
            <circle cx="0" cy="0" r="7" fill="#ff5f57"/>
            <circle cx="22" cy="0" r="7" fill="#febc2e"/>
            <circle cx="44" cy="0" r="7" fill="#28c840"/>
            </g>
        
    <g transform="translate(9, 41)" clip-path="url(#terminal-1239222041-clip-terminal)">
    <rect fill="#242f38" x="0" y="1.5" width="12.2" height="24.65" shape-rendering="crispEdges"/><rect fill="#242f38" x="12.2" y="1.5" width="12.2" height="24.65" shape-rendering="crispEdges"/><rect fill="#242f38" x="24.4" y="1.5" width="61" height="24.65" shape-rendering="crispEdges"/><rect fill="#242f38" x="85.4" y="1.5" width="12.2" height="24.65" shape-rendering="crispEdges"/><rect fill="#242f38" x="97.6" y="1.5" width="524.6" height="24.65" shape-rendering="crispEdges"/><rect fill="#242f38" x="622.2" y="1.5" width="109.8" height="24.65" shape-rendering="crispEdges"/><rect fill="#242f38" x="732" y="1.5" width="36.6" height="24.65" shape-rendering="crispEdges"/><rect fill="#242f38" x="768.6" y="1.5" width="1207.8" height="24.65" shape-rendering="crispEdges"/><rect fill="#242f38" x="1976.4" y="1.5" width="536.8" height="24.65" shape-rendering="crispEdges"/><rect fill="#242f38" x="2513.2" y="1.5" width="12.2" height="24.65" shape-rendering="crispEdges"/><rect fill="#242f38" x="2525.4" y="1.5" width="0" height="24.65" shape-rendering="crispEdges"/><rect fill="#242f38" x="2525.4" y="1.5" width="97.6" height="24.65" shape-rendering="crispEdges"/><rect fill="#242f38" x="2623" y="1.5" width="12.2" height="24.65" shape-rendering="crispEdges"/><rect fill="#2d3740" x="0" y="25.9" width="73.2" height="24.65" shape-rendering="crispEdges"/><rect fill="#2d3740" x="73.2" y="25.9" width="414.8" height="24.65" shape-rendering="crispEdges"/><rect fill="#2d3740" x="488" y="25.9" width="109.8" height="24.65" shape-rendering="crispEdges"/><rect fill="#2d3740" x="597.8" y="25.9" width="366" height="24.65" shape-rendering="crispEdges"/><rect fill="#2d3740" x="963.8" y="25.9" width="1671.4" height="24.65" shape-rendering="crispEdges"/><rect fill="#272727" x="0" y="50.3" width="12.2" height="24.65" shape-rendering="crispEdges"/><rect fill="#272727" x="12.2" y="50.3" width="48.8" height="24.65" shape-rendering="crispEdges"/><rect fill="#272727" x="61" y="50.3" width="12.2" height="24.65" shape-rendering="crispEdges"/><rect fill="#272727" x="73.2" y="50.3" width="414.8" height="24.65" shape-rendering="crispEdges"/><rect fill="#272727" x="488" y="50.3" width="109.8" height="24.65" shape-rendering="crispEdges"/><rect fill="#272727" x="597.8" y="50.3" width="366" height="24.65" shape-rendering="crispEdges"/><rect fill="#272727" x="963.8" y="50.3" width="1671.4" height="24.65" shape-rendering="crispEdges"/><rect fill="#272727" x="0" y="74.7" width="12.2" height="24.65" shape-rendering="crispEdges"/><rect fill="#272727" x="12.2" y="74.7" width="48.8" height="24.65" shape-rendering="crispEdges"/><rect fill="#272727" x="61" y="74.7" width="12.2" height="24.65" shape-rendering="crispEdges"/><rect fill="#272727" x="73.2" y="74.7" width="414.8" height="24.65" shape-rendering="crispEdges"/><rect fill="#272727" x="488" y="74.7" width="109.8" height="24.65" shape-rendering="crispEdges"/><rect fill="#272727" x="597.8" y="74.7" width="366" height="24.65" shape-rendering="crispEdges"/><rect fill="#272727" x="963.8" y="74.7" width="1671.4" height="24.65" shape-rendering="crispEdges"/><rect fill="#272727" x="0" y="99.1" width="12.2" height="24.65" shape-rendering="crispEdges"/><rect fill="#272727" x="12.2" y="99.1" width="48.8" height="24.65" shape-rendering="crispEdges"/><rect fill="#272727" x="61" y="99.1" width="12.2" height="24.65" shape-rendering="crispEdges"/><rect fill="#272727" x="73.2" y="99.1" width="414.8" height="24.65" shape-rendering="crispEdges"/><rect fill="#272727" x="488" y="99.1" width="109.8" height="24.65" shape-rendering="crispEdges"/><rect fill="#272727" x="597.8" y="99.1" width="366" height="24.65" shape-rendering="crispEdges"/><rect fill="#272727" x="963.8" y="99.1" width="1671.4" height="24.65" shape-rendering="crispEdges"/><rect fill="#272727" x="0" y="123.5" width="12.2" height="24.65" shape-rendering="crispEdges"/><rect fill="#272727" x="12.2" y="123.5" width="48.8" height="24.65" shape-rendering="crispEdges"/><rect fill="#272727" x="61" y="123.5" width="12.2" height="24.65" shape-rendering="crispEdges"/><rect fill="#272727" x="73.2" y="123.5" width="414.8" height="24.65" shape-rendering="crispEdges"/><rect fill="#272727" x="488" y="123.5" width="109.8" height="24.65" shape-rendering="crispEdges"/><rect fill="#272727" x="597.8" y="123.5" width="366" height="24.65" shape-rendering="crispEdges"/><rect fill="#272727" x="963.8" y="123.5" width="1671.4" height="24.65" shape-rendering="crispEdges"/><rect fill="#272727" x="0" y="147.9" width="12.2" height="24.65" shape-rendering="crispEdges"/><rect fill="#272727" x="12.2" y="147.9" width="48.8" height="24.65" shape-rendering="crispEdges"/><rect fill="#272727" x="61" y="147.9" width="12.2" height="24.65" shape-rendering="crispEdges"/><rect fill="#272727" x="73.2" y="147.9" width="414.8" height="24.65" shape-rendering="crispEdges"/><rect fill="#272727" x="488" y="147.9" width="109.8" height="24.65" shape-rendering="crispEdges"/><rect fill="#272727" x="597.8" y="147.9" width="366" height="24.65" shape-rendering="crispEdges"/><rect fill="#272727" x="963.8" y="147.9" width="1671.4" height="24.65" shape-rendering="crispEdges"/><rect fill="#0178d4" x="0" y="172.3" width="12.2" height="24.65" shape-rendering="crispEdges"/><rect fill="#0178d4" x="12.2" y="172.3" width="48.8" height="24.65" shape-rendering="crispEdges"/><rect fill="#0178d4" x="61" y="172.3" width="12.2" height="24.65" shape-rendering="crispEdges"/><rect fill="#0178d4" x="73.2" y="172.3" width="414.8" height="24.65" shape-rendering="crispEdges"/><rect fill="#0178d4" x="488" y="172.3" width="109.8" height="24.65" shape-rendering="crispEdges"/><rect fill="#0178d4" x="597.8" y="172.3" width="366" height="24.65" shape-rendering="crispEdges"/><rect fill="#0178d4" x="963.8" y="172.3" width="1671.4" height="24.65" shape-rendering="crispEdges"/><rect fill="#272727" x="0" y="196.7" width="12.2" height="24.65" shape-rendering="crispEdges"/><rect fill="#272727" x="12.2" y="196.7" width="48.8" height="24.65" shape-rendering="crispEdges"/><rect fill="#272727" x="61" y="196.7" width="12.2" height="24.65" shape-rendering="crispEdges"/><rect fill="#272727" x="73.2" y="196.7" width="414.8" height="24.65" shape-rendering="crispEdges"/><rect fill="#272727" x="488" y="196.7" width="109.8" height="24.65" shape-rendering="crispEdges"/><rect fill="#272727" x="597.8" y="196.7" width="366" height="24.65" shape-rendering="crispEdges"/><rect fill="#272727" x="963.8" y="196.7" width="1671.4" height="24.65" shape-rendering="crispEdges"/><rect fill="#272727" x="0" y="221.1" width="12.2" height="24.65" shape-rendering="crispEdges"/><rect fill="#272727" x="12.2" y="221.1" width="48.8" height="24.65" shape-rendering="crispEdges"/><rect fill="#272727" x="61" y="221.1" width="12.2" height="24.65" shape-rendering="crispEdges"/><rect fill="#272727" x="73.2" y="221.1" width="414.8" height="24.65" shape-rendering="crispEdges"/><rect fill="#272727" x="488" y="221.1" width="109.8" height="24.65" shape-rendering="crispEdges"/><rect fill="#272727" x="597.8" y="221.1" width="366" height="24.65" shape-rendering="crispEdges"/><rect fill="#272727" x="963.8" y="221.1" width="1671.4" height="24.65" shape-rendering="crispEdges"/><rect fill="#272727" x="0" y="245.5" width="12.2" height="24.65" shape-rendering="crispEdges"/><rect fill="#272727" x="12.2" y="245.5" width="48.8" height="24.65" shape-rendering="crispEdges"/><rect fill="#272727" x="61" y="245.5" width="12.2" height="24.65" shape-rendering="crispEdges"/><rect fill="#272727" x="73.2" y="245.5" width="414.8" height="24.65" shape-rendering="crispEdges"/><rect fill="#272727" x="488" y="245.5" width="109.8" height="24.65" shape-rendering="crispEdges"/><rect fill="#272727" x="597.8" y="245.5" width="366" height="24.65" shape-rendering="crispEdges"/><rect fill="#272727" x="963.8" y="245.5" width="1671.4" height="24.65" shape-rendering="crispEdges"/><rect fill="#272727" x="0" y="269.9" width="12.2" height="24.65" shape-rendering="crispEdges"/><rect fill="#272727" x="12.2" y="269.9" width="48.8" height="24.65" shape-rendering="crispEdges"/><rect fill="#272727" x="61" y="269.9" width="12.2" height="24.65" shape-rendering="crispEdges"/><rect fill="#272727" x="73.2" y="269.9" width="414.8" height="24.65" shape-rendering="crispEdges"/><rect fill="#272727" x="488" y="269.9" width="109.8" height="24.65" shape-rendering="crispEdges"/><rect fill="#272727" x="597.8" y="269.9" width="366" height="24.65" shape-rendering="crispEdges"/><rect fill="#272727" x="963.8" y="269.9" width="1671.4" height="24.65" shape-rendering="crispEdges"/><rect fill="#272727" x="0" y="294.3" width="12.2" height="24.65" shape-rendering="crispEdges"/><rect fill="#272727" x="12.2" y="294.3" width="48.8" height="24.65" shape-rendering="crispEdges"/><rect fill="#272727" x="61" y="294.3" width="12.2" height="24.65" shape-rendering="crispEdges"/><rect fill="#272727" x="73.2" y="294.3" width="414.8" height="24.65" shape-rendering="crispEdges"/><rect fill="#272727" x="488" y="294.3" width="109.8" height="24.65" shape-rendering="crispEdges"/><rect fill="#272727" x="597.8" y="294.3" width="366" height="24.65" shape-rendering="crispEdges"/><rect fill="#272727" x="963.8" y="294.3" width="1671.4" height="24.65" shape-rendering="crispEdges"/><rect fill="#272727" x="0" y="318.7" width="12.2" height="24.65" shape-rendering="crispEdges"/><rect fill="#272727" x="12.2" y="318.7" width="12.2" height="24.65" shape-rendering="crispEdges"/><rect fill="#272727" x="24.4" y="318.7" width="48.8" height="24.65" shape-rendering="crispEdges"/><rect fill="#272727" x="73.2" y="318.7" width="12.2" height="24.65" shape-rendering="crispEdges"/><rect fill="#272727" x="85.4" y="318.7" width="390.4" height="24.65" shape-rendering="crispEdges"/><rect fill="#272727" x="475.8" y="318.7" width="12.2" height="24.65" shape-rendering="crispEdges"/><rect fill="#272727" x="488" y="318.7" width="109.8" height="24.65" shape-rendering="crispEdges"/><rect fill="#272727" x="597.8" y="318.7" width="366" height="24.65" shape-rendering="crispEdges"/><rect fill="#272727" x="963.8" y="318.7" width="1671.4" height="24.65" shape-rendering="crispEdges"/><rect fill="#272727" x="0" y="343.1" width="2635.2" height="24.65" shape-rendering="crispEdges"/><rect fill="#272727" x="0" y="367.5" width="2635.2" height="24.65" shape-rendering="crispEdges"/><rect fill="#272727" x="0" y="391.9" width="2635.2" height="24.65" shape-rendering="crispEdges"/><rect fill="#272727" x="0" y="416.3" width="2635.2" height="24.65" shape-rendering="crispEdges"/><rect fill="#272727" x="0" y="440.7" width="2635.2" height="24.65" shape-rendering="crispEdges"/><rect fill="#272727" x="0" y="465.1" width="2635.2" height="24.65" shape-rendering="crispEdges"/><rect fill="#272727" x="0" y="489.5" width="2635.2" height="24.65" shape-rendering="crispEdges"/><rect fill="#272727" x="0" y="513.9" width="2635.2" height="24.65" shape-rendering="crispEdges"/><rect fill="#272727" x="0" y="538.3" width="2635.2" height="24.65" shape-rendering="crispEdges"/><rect fill="#272727" x="0" y="562.7" width="2635.2" height="24.65" shape-rendering="crispEdges"/><rect fill="#272727" x="0" y="587.1" width="2635.2" height="24.65" shape-rendering="crispEdges"/><rect fill="#272727" x="0" y="611.5" width="2635.2" height="24.65" shape-rendering="crispEdges"/><rect fill="#272727" x="0" y="635.9" width="2635.2" height="24.65" shape-rendering="crispEdges"/><rect fill="#272727" x="0" y="660.3" width="2635.2" height="24.65" shape-rendering="crispEdges"/><rect fill="#272727" x="0" y="684.7" width="2635.2" height="24.65" shape-rendering="crispEdges"/><rect fill="#272727" x="0" y="709.1" width="2635.2" height="24.65" shape-rendering="crispEdges"/><rect fill="#272727" x="0" y="733.5" width="2635.2" height="24.65" shape-rendering="crispEdges"/><rect fill="#272727" x="0" y="757.9" width="2635.2" height="24.65" shape-rendering="crispEdges"/><rect fill="#272727" x="0" y="782.3" width="2635.2" height="24.65" shape-rendering="crispEdges"/><rect fill="#242f38" x="0" y="806.7" width="36.6" height="24.65" shape-rendering="crispEdges"/><rect fill="#242f38" x="36.6" y="806.7" width="292.8" height="24.65" shape-rendering="crispEdges"/><rect fill="#242f38" x="329.4" y="806.7" width="36.6" height="24.65" shape-rendering="crispEdges"/><rect fill="#242f38" x="366" y="806.7" width="61" height="24.65" shape-rendering="crispEdges"/><rect fill="#242f38" x="427" y="806.7" width="2061.8" height="24.65" shape-rendering="crispEdges"/><rect fill="#242f38" x="2488.8" y="806.7" width="12.2" height="24.65" shape-rendering="crispEdges"/><rect fill="#242f38" x="2501" y="806.7" width="24.4" height="24.65" shape-rendering="crispEdges"/><rect fill="#242f38" x="2525.4" y="806.7" width="97.6" height="24.65" shape-rendering="crispEdges"/><rect fill="#242f38" x="2623" y="806.7" width="12.2" height="24.65" shape-rendering="crispEdges"/>
    <g class="terminal-1239222041-matrix">
    <text class="terminal-1239222041-r2" x="12.2" y="20" textLength="12.2" clip-path="url(#terminal-1239222041-line-0)">⭘</text><text class="terminal-1239222041-r2" x="622.2" y="20" textLength="109.8" clip-path="url(#terminal-1239222041-line-0)">okgv&#160;undo</text><text class="terminal-1239222041-r3" x="732" y="20" textLength="36.6" clip-path="url(#terminal-1239222041-line-0)">&#160;—&#160;</text><text class="terminal-1239222041-r3" x="768.6" y="20" textLength="1207.8" clip-path="url(#terminal-1239222041-line-0)">roll&#160;back&#160;here&#160;→&#160;delete&#160;30,&#160;keep&#160;36&#160;&#160;[search/file_search&#160;(6),&#160;search/contact_lookup&#160;(6),&#160;messagin…]</text><text class="terminal-1239222041-r1" x="2635.2" y="20" textLength="12.2" clip-path="url(#terminal-1239222041-line-0)">
</text><text class="terminal-1239222041-r4" x="73.2" y="44.4" textLength="414.8" clip-path="url(#terminal-1239222041-line-1)">&#160;When&#160;&#160;&#160;&#160;&#160;&#160;&#160;&#160;&#160;&#160;&#160;&#160;&#160;&#160;&#160;&#160;&#160;&#160;&#160;&#160;&#160;&#160;&#160;&#160;&#160;&#160;&#160;&#160;&#160;</text><text class="terminal-1239222041-r4" x="488" y="44.4" textLength="109.8" clip-path="url(#terminal-1239222041-line-1)">&#160;Entries&#160;</text><text class="terminal-1239222041-r4" x="597.8" y="44.4" textLength="366" clip-path="url(#terminal-1239222041-line-1)">&#160;Topics&#160;&#160;&#160;&#160;&#160;&#160;&#160;&#160;&#160;&#160;&#160;&#160;&#160;&#160;&#160;&#160;&#160;&#160;&#160;&#160;&#160;&#160;&#160;</text><text class="terminal-1239222041-r1" x="2635.2" y="44.4" textLength="12.2" clip-path="url(#terminal-1239222041-line-1)">
</text><text class="terminal-1239222041-r5" x="12.2" y="68.8" textLength="48.8" clip-path="url(#terminal-1239222041-line-2)">✗&#160;de</text><text class="terminal-1239222041-r2" x="73.2" y="68.8" textLength="414.8" clip-path="url(#terminal-1239222041-line-2)">&#160;2026-06-08&#160;12:12:06&#160;&#160;&#160;&#160;&#160;&#160;&#160;&#160;&#160;&#160;&#160;&#160;&#160;&#160;</text><text class="terminal-1239222041-r2" x="488" y="68.8" textLength="109.8" clip-path="url(#terminal-1239222041-line-2)">&#160;6&#160;&#160;&#160;&#160;&#160;&#160;&#160;</text><text class="terminal-1239222041-r2" x="597.8" y="68.8" textLength="366" clip-path="url(#terminal-1239222041-line-2)">&#160;search/file_search&#160;(6)&#160;&#160;&#160;&#160;&#160;&#160;&#160;</text><text class="terminal-1239222041-r1" x="2635.2" y="68.8" textLength="12.2" clip-path="url(#terminal-1239222041-line-2)">
</text><text class="terminal-1239222041-r5" x="12.2" y="93.2" textLength="48.8" clip-path="url(#terminal-1239222041-line-3)">✗&#160;de</text><text class="terminal-1239222041-r2" x="73.2" y="93.2" textLength="414.8" clip-path="url(#terminal-1239222041-line-3)">&#160;2026-06-08&#160;12:11:59&#160;&#160;&#160;&#160;&#160;&#160;&#160;&#160;&#160;&#160;&#160;&#160;&#160;&#160;</text><text class="terminal-1239222041-r2" x="488" y="93.2" textLength="109.8" clip-path="url(#terminal-1239222041-line-3)">&#160;6&#160;&#160;&#160;&#160;&#160;&#160;&#160;</text><text class="terminal-1239222041-r2" x="597.8" y="93.2" textLength="366" clip-path="url(#terminal-1239222041-line-3)">&#160;search/contact_lookup&#160;(6)&#160;&#160;&#160;&#160;</text><text class="terminal-1239222041-r1" x="2635.2" y="93.2" textLength="12.2" clip-path="url(#terminal-1239222041-line-3)">
</text><text class="terminal-1239222041-r5" x="12.2" y="117.6" textLength="48.8" clip-path="url(#terminal-1239222041-line-4)">✗&#160;de</text><text class="terminal-1239222041-r2" x="73.2" y="117.6" textLength="414.8" clip-path="url(#terminal-1239222041-line-4)">&#160;2026-06-08&#160;12:11:52&#160;&#160;&#160;&#160;&#160;&#160;&#160;&#160;&#160;&#160;&#160;&#160;&#160;&#160;</text><text class="terminal-1239222041-r2" x="488" y="117.6" textLength="109.8" clip-path="url(#terminal-1239222041-line-4)">&#160;6&#160;&#160;&#160;&#160;&#160;&#160;&#160;</text><text class="terminal-1239222041-r2" x="597.8" y="117.6" textLength="366" clip-path="url(#terminal-1239222041-line-4)">&#160;messaging/send_message&#160;(6)&#160;&#160;&#160;</text><text class="terminal-1239222041-r1" x="2635.2" y="117.6" textLength="12.2" clip-path="url(#terminal-1239222041-line-4)">
</text><text class="terminal-1239222041-r5" x="12.2" y="142" textLength="48.8" clip-path="url(#terminal-1239222041-line-5)">✗&#160;de</text><text class="terminal-1239222041-r2" x="73.2" y="142" textLength="414.8" clip-path="url(#terminal-1239222041-line-5)">&#160;2026-06-08&#160;12:11:45&#160;&#160;&#160;&#160;&#160;&#160;&#160;&#160;&#160;&#160;&#160;&#160;&#160;&#160;</text><text class="terminal-1239222041-r2" x="488" y="142" textLength="109.8" clip-path="url(#terminal-1239222041-line-5)">&#160;6&#160;&#160;&#160;&#160;&#160;&#160;&#160;</text><text class="terminal-1239222041-r2" x="597.8" y="142" textLength="366" clip-path="url(#terminal-1239222041-line-5)">&#160;messaging/read_messages&#160;(6)&#160;&#160;</text><text class="terminal-1239222041-r1" x="2635.2" y="142" textLength="12.2" clip-path="url(#terminal-1239222041-line-5)">
</text><text class="terminal-1239222041-r5" x="12.2" y="166.4" textLength="48.8" clip-path="url(#terminal-1239222041-line-6)">✗&#160;de</text><text class="terminal-1239222041-r2" x="73.2" y="166.4" textLength="414.8" clip-path="url(#terminal-1239222041-line-6)">&#160;2026-06-08&#160;12:11:39&#160;&#160;&#160;&#160;&#160;&#160;&#160;&#160;&#160;&#160;&#160;&#160;&#160;&#160;</text><text class="terminal-1239222041-r2" x="488" y="166.4" textLength="109.8" clip-path="url(#terminal-1239222041-line-6)">&#160;6&#160;&#160;&#160;&#160;&#160;&#160;&#160;</text><text class="terminal-1239222041-r2" x="597.8" y="166.4" textLength="366" clip-path="url(#terminal-1239222041-line-6)">&#160;messaging/manage_threads&#160;(6)&#160;</text><text class="terminal-1239222041-r1" x="2635.2" y="166.4" textLength="12.2" clip-path="url(#terminal-1239222041-line-6)">
</text><text class="terminal-1239222041-r7" x="12.2" y="190.8" textLength="48.8" clip-path="url(#terminal-1239222041-line-7)">keep</text><text class="terminal-1239222041-r6" x="73.2" y="190.8" textLength="414.8" clip-path="url(#terminal-1239222041-line-7)">&#160;2026-06-08&#160;12:11:32&#160;&#160;&#160;&#160;&#160;&#160;&#160;&#160;&#160;&#160;&#160;&#160;&#160;&#160;</text><text class="terminal-1239222041-r6" x="488" y="190.8" textLength="109.8" clip-path="url(#terminal-1239222041-line-7)">&#160;6&#160;&#160;&#160;&#160;&#160;&#160;&#160;</text><text class="terminal-1239222041-r6" x="597.8" y="190.8" textLength="366" clip-path="url(#terminal-1239222041-line-7)">&#160;math/unit_conversion&#160;(6)&#160;&#160;&#160;&#160;&#160;</text><text class="terminal-1239222041-r1" x="2635.2" y="190.8" textLength="12.2" clip-path="url(#terminal-1239222041-line-7)">
</text><text class="terminal-1239222041-r8" x="12.2" y="215.2" textLength="48.8" clip-path="url(#terminal-1239222041-line-8)">keep</text><text class="terminal-1239222041-r2" x="73.2" y="215.2" textLength="414.8" clip-path="url(#terminal-1239222041-line-8)">&#160;2026-06-08&#160;12:11:25&#160;&#160;&#160;&#160;&#160;&#160;&#160;&#160;&#160;&#160;&#160;&#160;&#160;&#160;</text><text class="terminal-1239222041-r2" x="488" y="215.2" textLength="109.8" clip-path="url(#terminal-1239222041-line-8)">&#160;6&#160;&#160;&#160;&#160;&#160;&#160;&#160;</text><text class="terminal-1239222041-r2" x="597.8" y="215.2" textLength="366" clip-path="url(#terminal-1239222041-line-8)">&#160;math/statistics&#160;(6)&#160;&#160;&#160;&#160;&#160;&#160;&#160;&#160;&#160;&#160;</text><text class="terminal-1239222041-r1" x="2635.2" y="215.2" textLength="12.2" clip-path="url(#terminal-1239222041-line-8)">
</text><text class="terminal-1239222041-r8" x="12.2" y="239.6" textLength="48.8" clip-path="url(#terminal-1239222041-line-9)">keep</text><text class="terminal-1239222041-r2" x="73.2" y="239.6" textLength="414.8" clip-path="url(#terminal-1239222041-line-9)">&#160;2026-06-08&#160;12:11:19&#160;&#160;&#160;&#160;&#160;&#160;&#160;&#160;&#160;&#160;&#160;&#160;&#160;&#160;</text><text class="terminal-1239222041-r2" x="488" y="239.6" textLength="109.8" clip-path="url(#terminal-1239222041-line-9)">&#160;6&#160;&#160;&#160;&#160;&#160;&#160;&#160;</text><text class="terminal-1239222041-r2" x="597.8" y="239.6" textLength="366" clip-path="url(#terminal-1239222041-line-9)">&#160;math/arithmetic&#160;(6)&#160;&#160;&#160;&#160;&#160;&#160;&#160;&#160;&#160;&#160;</text><text class="terminal-1239222041-r1" x="2635.2" y="239.6" textLength="12.2" clip-path="url(#terminal-1239222041-line-9)">
</text><text class="terminal-1239222041-r8" x="12.2" y="264" textLength="48.8" clip-path="url(#terminal-1239222041-line-10)">keep</text><text class="terminal-1239222041-r2" x="73.2" y="264" textLength="414.8" clip-path="url(#terminal-1239222041-line-10)">&#160;2026-06-08&#160;12:11:12&#160;&#160;&#160;&#160;&#160;&#160;&#160;&#160;&#160;&#160;&#160;&#160;&#160;&#160;</text><text class="terminal-1239222041-r2" x="488" y="264" textLength="109.8" clip-path="url(#terminal-1239222041-line-10)">&#160;6&#160;&#160;&#160;&#160;&#160;&#160;&#160;</text><text class="terminal-1239222041-r2" x="597.8" y="264" textLength="366" clip-path="url(#terminal-1239222041-line-10)">&#160;calendar/modify_event&#160;(6)&#160;&#160;&#160;&#160;</text><text class="terminal-1239222041-r1" x="2635.2" y="264" textLength="12.2" clip-path="url(#terminal-1239222041-line-10)">
</text><text class="terminal-1239222041-r8" x="12.2" y="288.4" textLength="48.8" clip-path="url(#terminal-1239222041-line-11)">keep</text><text class="terminal-1239222041-r2" x="73.2" y="288.4" textLength="414.8" clip-path="url(#terminal-1239222041-line-11)">&#160;2026-06-08&#160;12:11:06&#160;&#160;&#160;&#160;&#160;&#160;&#160;&#160;&#160;&#160;&#160;&#160;&#160;&#160;</text><text class="terminal-1239222041-r2" x="488" y="288.4" textLength="109.8" clip-path="url(#terminal-1239222041-line-11)">&#160;6&#160;&#160;&#160;&#160;&#160;&#160;&#160;</text><text class="terminal-1239222041-r2" x="597.8" y="288.4" textLength="366" clip-path="url(#terminal-1239222041-line-11)">&#160;calendar/list_events&#160;(6)&#160;&#160;&#160;&#160;&#160;</text><text class="terminal-1239222041-r1" x="2635.2" y="288.4" textLength="12.2" clip-path="url(#terminal-1239222041-line-11)">
</text><text class="terminal-1239222041-r8" x="12.2" y="312.8" textLength="48.8" clip-path="url(#terminal-1239222041-line-12)">keep</text><text class="terminal-1239222041-r2" x="73.2" y="312.8" textLength="414.8" clip-path="url(#terminal-1239222041-line-12)">&#160;2026-06-08&#160;12:10:59&#160;&#160;&#160;&#160;&#160;&#160;&#160;&#160;&#160;&#160;&#160;&#160;&#160;&#160;</text><text class="terminal-1239222041-r2" x="488" y="312.8" textLength="109.8" clip-path="url(#terminal-1239222041-line-12)">&#160;6&#160;&#160;&#160;&#160;&#160;&#160;&#160;</text><text class="terminal-1239222041-r2" x="597.8" y="312.8" textLength="366" clip-path="url(#terminal-1239222041-line-12)">&#160;calendar/create_event&#160;(6)&#160;&#160;&#160;&#160;</text><text class="terminal-1239222041-r1" x="2635.2" y="312.8" textLength="12.2" clip-path="url(#terminal-1239222041-line-12)">
</text><text class="terminal-1239222041-r5" x="12.2" y="337.2" textLength="12.2" clip-path="url(#terminal-1239222041-line-13)">↧</text><text class="terminal-1239222041-r5" x="85.4" y="337.2" textLength="390.4" clip-path="url(#terminal-1239222041-line-13)">undo&#160;everything&#160;(empty&#160;database)</text><text class="terminal-1239222041-r1" x="2635.2" y="337.2" textLength="12.2" clip-path="url(#terminal-1239222041-line-13)">
</text><text class="terminal-1239222041-r1" x="2635.2" y="361.6" textLength="12.2" clip-path="url(#terminal-1239222041-line-14)">
</text><text class="terminal-1239222041-r1" x="2635.2" y="386" textLength="12.2" clip-path="url(#terminal-1239222041-line-15)">
</text><text class="terminal-1239222041-r1" x="2635.2" y="410.4" textLength="12.2" clip-path="url(#terminal-1239222041-line-16)">
</text><text class="terminal-1239222041-r1" x="2635.2" y="434.8" textLength="12.2" clip-path="url(#terminal-1239222041-line-17)">
</text><text class="terminal-1239222041-r1" x="2635.2" y="459.2" textLength="12.2" clip-path="url(#terminal-1239222041-line-18)">
</text><text class="terminal-1239222041-r1" x="2635.2" y="483.6" textLength="12.2" clip-path="url(#terminal-1239222041-line-19)">
</text><text class="terminal-1239222041-r1" x="2635.2" y="508" textLength="12.2" clip-path="url(#terminal-1239222041-line-20)">
</text><text class="terminal-1239222041-r1" x="2635.2" y="532.4" textLength="12.2" clip-path="url(#terminal-1239222041-line-21)">
</text><text class="terminal-1239222041-r1" x="2635.2" y="556.8" textLength="12.2" clip-path="url(#terminal-1239222041-line-22)">
</text><text class="terminal-1239222041-r1" x="2635.2" y="581.2" textLength="12.2" clip-path="url(#terminal-1239222041-line-23)">
</text><text class="terminal-1239222041-r1" x="2635.2" y="605.6" textLength="12.2" clip-path="url(#terminal-1239222041-line-24)">
</text><text class="terminal-1239222041-r1" x="2635.2" y="630" textLength="12.2" clip-path="url(#terminal-1239222041-line-25)">
</text><text class="terminal-1239222041-r1" x="2635.2" y="654.4" textLength="12.2" clip-path="url(#terminal-1239222041-line-26)">
</text><text class="terminal-1239222041-r1" x="2635.2" y="678.8" textLength="12.2" clip-path="url(#terminal-1239222041-line-27)">
</text><text class="terminal-1239222041-r1" x="2635.2" y="703.2" textLength="12.2" clip-path="url(#terminal-1239222041-line-28)">
</text><text class="terminal-1239222041-r1" x="2635.2" y="727.6" textLength="12.2" clip-path="url(#terminal-1239222041-line-29)">
</text><text class="terminal-1239222041-r1" x="2635.2" y="752" textLength="12.2" clip-path="url(#terminal-1239222041-line-30)">
</text><text class="terminal-1239222041-r1" x="2635.2" y="776.4" textLength="12.2" clip-path="url(#terminal-1239222041-line-31)">
</text><text class="terminal-1239222041-r1" x="2635.2" y="800.8" textLength="12.2" clip-path="url(#terminal-1239222041-line-32)">
</text><text class="terminal-1239222041-r9" x="0" y="825.2" textLength="36.6" clip-path="url(#terminal-1239222041-line-33)">&#160;c&#160;</text><text class="terminal-1239222041-r2" x="36.6" y="825.2" textLength="292.8" clip-path="url(#terminal-1239222041-line-33)">Roll&#160;back&#160;to&#160;checkpoint&#160;</text><text class="terminal-1239222041-r9" x="329.4" y="825.2" textLength="36.6" clip-path="url(#terminal-1239222041-line-33)">&#160;q&#160;</text><text class="terminal-1239222041-r2" x="366" y="825.2" textLength="61" clip-path="url(#terminal-1239222041-line-33)">Quit&#160;</text><text class="terminal-1239222041-r10" x="2488.8" y="825.2" textLength="12.2" clip-path="url(#terminal-1239222041-line-33)">▏</text><text class="terminal-1239222041-r9" x="2501" y="825.2" textLength="24.4" clip-path="url(#terminal-1239222041-line-33)">^p</text><text class="terminal-1239222041-r2" x="2525.4" y="825.2" textLength="97.6" clip-path="url(#terminal-1239222041-line-33)">&#160;palette</text>
    </g>
    </g>
</svg>
